# xmcd
#
# Track frame offsets: 
#        150
#        21146
#        39352
#        66220
#        88456
#        111909
#        132120
#        150009
#        167718
#        188209
#        209295
#        230473
#        251818
#
# Disc length: 3638 seconds
#
# Revision: 4
# Processed by: cddbd v1.5.2PL0 Copyright (c) Steve Scherf et al.
# Submitted via: ExactAudioCopy v1.3
#
DISCID=aa0e340d
DTITLE=BENI - Covers 2
DYEAR=2012
DGENRE=Pop
TTITLE0=Lovers Again
TTITLE1=白い恋人達
TTITLE2=歌うたいのバラッド
TTITLE3=PIECES OF A DREAM
TTITLE4=楽園
TTITLE5=チェリー
TTITLE6=クリスマス・イブ
TTITLE7=はじまりはいつも雨
TTITLE8=I LOVE YOU
TTITLE9=小さな恋のうた
TTITLE10=接吻
TTITLE11=永遠に
TTITLE12=Squall
EXTD=YEAR: 2012
EXTT0=
EXTT1=
EXTT2=
EXTT3=
EXTT4=
EXTT5=
EXTT6=
EXTT7=
EXTT8=
EXTT9=
EXTT10=
EXTT11=
EXTT12=
PLAYORDER=
